<svg id="visual" viewBox="0 0 900 600" width="900" height="600" xmlns="http://www.w3.org/2000/svg" xmlns:xlink="http://www.w3.org/1999/xlink" version="1.1"><rect x="0" y="0" width="900" height="600" fill="#fefeff"></rect><path d="M0 475L13.7 470C27.3 465 54.7 455 82 452.8C109.3 450.7 136.7 456.3 163.8 453.8C191 451.3 218 440.7 245.2 433C272.3 425.3 299.7 420.7 327 419.8C354.3 419 381.7 422 409 439.7C436.3 457.3 463.7 489.7 491 484.8C518.3 480 545.7 438 573 414C600.3 390 627.7 384 654.8 393.8C682 403.7 709 429.3 736.2 434.3C763.3 439.3 790.7 423.7 818 424.8C845.3 426 872.7 444 886.3 453L900 462L900 601L886.3 601C872.7 601 845.3 601 818 601C790.7 601 763.3 601 736.2 601C709 601 682 601 654.8 601C627.7 601 600.3 601 573 601C545.7 601 518.3 601 491 601C463.7 601 436.3 601 409 601C381.7 601 354.3 601 327 601C299.7 601 272.3 601 245.2 601C218 601 191 601 163.8 601C136.7 601 109.3 601 82 601C54.7 601 27.3 601 13.7 601L0 601Z" fill="#4353B7" stroke-linecap="round" stroke-linejoin="miter"></path></svg>